<svg width="847" height="1111" viewBox="0 0 847 1111" fill="none" xmlns="http://www.w3.org/2000/svg">
<path d="M448.5 1C450.4 1 452.3 1 454.2 1" stroke="#EA571D" stroke-miterlimit="10"/>
<path d="M459.1 1C651.6 1.4 830.4 32.3 827.3 146.1C824.6 246.5 715.8 230.8 473.6 242.2C148 257.5 -76.2 328.9 25.9 431.3C129 534.6 350.2 430.5 674.5 460.2C685.9 461.2 849.7 483.8 845.9 565.7C834.4 815 1.3 596.1 29 843.7C39.7 939.5 171.3 914.3 321.1 922.7C550.2 935.5 829.4 959.3 839.5 1102.7" stroke="#EA571D" stroke-miterlimit="10" stroke-dasharray="11.45 11.45"/>
<path d="M839.5 1105.2C839.6 1107.1 839.6 1109 839.6 1110.9" stroke="#EA571D" stroke-miterlimit="10"/>
</svg>
