<svg width="847" height="1111" viewBox="0 0 847 1111" fill="none" xmlns="http://www.w3.org/2000/svg">
<path d="M448.6 1C450.5 1 452.4 1 454.3 1" stroke="#EA571D" stroke-miterlimit="10"/>
<path d="M459.2 1C651.7 1.4 830.5 32.3 827.4 146.1C824.7 246.5 715.9 230.8 473.7 242.2C148.1 257.5 -76.1004 328.9 25.9996 431.3C129.1 534.6 350.3 430.5 674.6 460.2C686 461.2 849.8 483.8 846 565.7C834.5 815 1.39961 596.1 29.0996 843.7C39.7996 939.5 171.4 914.3 321.2 922.7C550.3 935.5 829.5 959.3 839.6 1102.7" stroke="#EA571D" stroke-miterlimit="10" stroke-dasharray="11.45 11.45"/>
<path d="M839.6 1105.2C839.7 1107.1 839.7 1109 839.7 1110.9" stroke="#EA571D" stroke-miterlimit="10"/>
</svg>
