<svg width="136" height="136" viewBox="0 0 136 136" fill="none" xmlns="http://www.w3.org/2000/svg">
<path d="M68 136C105.555 136 136 105.555 136 68C136 30.4446 105.555 0 68 0C30.4446 0 0 30.4446 0 68C0 105.555 30.4446 136 68 136Z" fill="#EA525B"/>
<path d="M68.0005 127.313C100.785 127.313 127.362 100.758 127.362 68C127.362 35.2425 100.785 8.68726 68.0005 8.68726C35.2159 8.68726 8.63867 35.2425 8.63867 68C8.63867 100.758 35.2159 127.313 68.0005 127.313Z" fill="#E41D20"/>
<path d="M53.2351 43.4361H88.3902C89.5955 43.4361 90.6 44.4347 90.6 45.6329V68.2996C90.6 69.4978 91.6044 70.4963 92.8097 70.4963H93.4124C94.6177 70.4963 95.6221 69.4978 95.6221 68.2996V40.6403C95.6221 39.442 94.6177 38.4435 93.4124 38.4435H48.4138C47.2085 38.4435 46.2041 39.442 46.2041 40.6403V95.2599C46.2041 96.4582 47.2085 97.4567 48.4138 97.4567H71.2144C72.4198 97.4567 73.4242 96.4582 73.4242 95.2599V94.6608C73.4242 93.4626 72.4198 92.464 71.2144 92.464H53.3356C52.1303 92.464 51.1258 91.4655 51.1258 90.2673V45.6329C51.1258 44.4347 52.0298 43.4361 53.2351 43.4361Z" fill="white"/>
<path d="M57.6546 48.5287H82.3636C83.7698 48.5287 84.8747 49.6271 84.8747 51.025C84.8747 52.423 83.7698 53.5213 82.3636 53.5213H57.6546C56.2484 53.5213 55.1436 52.423 55.1436 51.025C55.1436 49.6271 56.2484 48.5287 57.6546 48.5287ZM57.6546 58.4141H77.4419C78.8481 58.4141 79.953 59.5125 79.953 60.9105C79.953 62.3084 78.8481 63.4068 77.4419 63.4068H57.6546C56.2484 63.4068 55.1436 62.3084 55.1436 60.9105C55.1436 59.5125 56.2484 58.4141 57.6546 58.4141ZM57.6546 68.1998H67.498C68.9043 68.1998 70.0091 69.2982 70.0091 70.6961C70.0091 72.094 68.9043 73.1924 67.498 73.1924H57.6546C56.2484 73.1924 55.1436 72.094 55.1436 70.6961C55.1436 69.2982 56.2484 68.1998 57.6546 68.1998ZM88.4907 73.9912C81.1583 73.2923 75.1317 79.2835 75.8348 86.5727C76.337 91.9648 80.7565 96.2585 86.1805 96.8576C93.5128 97.5566 99.5394 91.5654 98.8363 84.2761C98.2337 78.8841 93.9146 74.5904 88.4907 73.9912ZM88.2898 92.6638C83.4685 93.2629 79.3503 89.1689 79.953 84.376C80.3548 81.0808 83.0667 78.4846 86.3814 77.9854C91.2026 77.3862 95.3208 81.4802 94.7181 86.2732C94.2159 89.6682 91.504 92.2644 88.2898 92.6638Z" fill="white"/>
<path d="M86.6823 86.0735L84.3721 84.1763L82.3633 86.2732L86.8832 90.0676L92.508 84.0764L90.2983 82.2791L86.6823 86.0735Z" fill="white"/>
</svg>
