<svg width="136" height="136" viewBox="0 0 136 136" fill="none" xmlns="http://www.w3.org/2000/svg">
<path d="M68 136C105.555 136 136 105.555 136 68C136 30.4446 105.555 0 68 0C30.4446 0 0 30.4446 0 68C0 105.555 30.4446 136 68 136Z" fill="#EA525B"/>
<path d="M68.0005 127.313C100.785 127.313 127.362 100.758 127.362 68C127.362 35.2425 100.785 8.68726 68.0005 8.68726C35.2159 8.68726 8.63867 35.2425 8.63867 68C8.63867 100.758 35.2159 127.313 68.0005 127.313Z" fill="#E41D20"/>
<path fill-rule="evenodd" clip-rule="evenodd" d="M39.374 57.4155V67.3009C39.374 68.2994 40.1776 68.9984 41.0816 68.9984C42.086 68.9984 42.7891 68.1996 42.7891 67.3009V37.6446C42.7891 36.646 43.5926 35.947 44.4966 35.947H88.3903C89.3947 35.947 90.0978 36.7459 90.0978 37.6446V42.8369H49.7197C48.7152 42.8369 48.0121 43.6357 48.0121 44.5344C48.0121 45.4331 48.8157 46.2319 49.7197 46.2319H90.0978V70.6959H80.7566C80.2544 70.6959 79.7522 70.8956 79.4508 71.295C79.1495 71.6944 78.9486 72.1937 79.0491 72.693L81.5601 89.8677C81.6606 90.5667 82.1628 91.0659 82.7655 91.2656C83.4686 91.4654 84.1717 91.2656 84.5734 90.7664L88.5912 86.1732L90.0978 87.4712V93.4624C90.0978 94.461 89.2943 95.1599 88.3903 95.1599H44.4966C43.4922 95.1599 42.7891 94.3611 42.7891 93.4624V74.1908C42.7891 73.1923 41.9856 72.4933 41.0816 72.4933C40.0771 72.4933 39.374 73.2921 39.374 74.1908V93.3626C39.374 96.2583 41.6842 98.555 44.5971 98.555H88.4907C91.4036 98.555 93.7138 96.2583 93.7138 93.3626V90.4668L97.3297 93.5623C98.0328 94.1614 99.1377 94.1614 99.8408 93.3626L104.461 88.0704C105.064 87.3714 105.064 86.273 104.26 85.5741L95.6222 78.1849L99.6399 73.5917C100.042 73.0924 100.243 72.3934 99.9412 71.6945C99.6399 71.0953 99.0373 70.6959 98.3341 70.6959H93.8142V37.5447C93.8142 34.6489 91.504 32.3523 88.5912 32.3523H44.6975C41.7847 32.3523 39.4745 34.6489 39.4745 37.5447V53.8207M89.696 82.3788C88.9929 81.7796 87.8881 81.7796 87.185 82.5785L84.5734 85.6739L82.9664 74.2906H94.5173L91.9058 77.2862C91.3031 77.9852 91.3031 79.0836 92.1067 79.7825L100.745 87.1717L98.4346 89.7678L89.696 82.3788ZM53.4361 74.1908C53.4361 73.1923 52.6325 72.4933 51.7285 72.4933H48.213C47.2086 72.4933 46.5055 73.2921 46.5055 74.1908V77.6856C46.5055 78.6842 47.309 79.3832 48.213 79.3832H51.7285C52.733 79.3832 53.4361 78.5843 53.4361 77.6856V74.1908ZM56.9516 77.6856H74.5291C75.5335 77.6856 76.2367 76.8868 76.2367 75.9881C76.2367 74.9896 75.4331 74.2906 74.5291 74.2906H56.9516C55.9471 74.2906 55.244 75.0895 55.244 75.9881C55.1436 76.8868 55.9471 77.6856 56.9516 77.6856ZM53.4361 63.806C53.4361 62.8075 52.6325 62.1086 51.7285 62.1086H48.213C47.2086 62.1086 46.5055 62.9074 46.5055 63.806V67.3009C46.5055 68.2994 47.309 68.9984 48.213 68.9984H51.7285C52.733 68.9984 53.4361 68.1996 53.4361 67.3009V63.806ZM56.9516 67.2011H85.0756C86.0801 67.2011 86.7832 66.4022 86.7832 65.5036C86.7832 64.505 85.9796 63.806 85.0756 63.806H56.9516C55.9471 63.806 55.244 64.6049 55.244 65.5036C55.1436 66.5021 55.9471 67.2011 56.9516 67.2011ZM53.4361 53.3215C53.4361 52.3229 52.6325 51.624 51.7285 51.624H48.213C47.2086 51.624 46.5055 52.4228 46.5055 53.3215V56.8163C46.5055 57.8148 47.309 58.5138 48.213 58.5138H51.7285C52.733 58.5138 53.4361 57.715 53.4361 56.8163V53.3215ZM56.9516 56.8163H85.0756C86.0801 56.8163 86.7832 56.0175 86.7832 55.1189C86.7832 54.1203 85.9796 53.4213 85.0756 53.4213H56.9516C55.9471 53.4213 55.244 54.2202 55.244 55.1189C55.1436 56.0175 55.9471 56.8163 56.9516 56.8163Z" fill="white"/>
</svg>
