<svg width="80" height="80" viewBox="0 0 80 80" fill="none" xmlns="http://www.w3.org/2000/svg">
<path d="M40 80C62.0914 80 80 62.0914 80 40C80 17.9086 62.0914 0 40 0C17.9086 0 0 17.9086 0 40C0 62.0914 17.9086 80 40 80Z" fill="#E41D20"/>
<path d="M21.0026 27.6425L37.4795 38.3653C39.0215 39.3648 40.9705 39.3648 42.5125 38.3653L58.9894 27.6425M23.3656 54.8279H56.6121C59.2321 54.8279 61.3595 52.6148 61.3595 49.8877V30.1126C61.3595 27.3855 59.2321 25.1724 56.6121 25.1724H23.3656C20.7456 25.1724 18.6182 27.3855 18.6182 30.1126V49.8877C18.6182 52.6148 20.7456 54.8279 23.3656 54.8279Z" fill="#E41D20"/>
<path d="M21.0026 27.6425L37.4795 38.3653C39.0215 39.3648 40.9705 39.3648 42.5125 38.3653L58.9894 27.6425M23.3656 54.8279H56.6121C59.2321 54.8279 61.3595 52.6148 61.3595 49.8877V30.1126C61.3595 27.3855 59.2321 25.1724 56.6121 25.1724H23.3656C20.7456 25.1724 18.6182 27.3855 18.6182 30.1126V49.8877C18.6182 52.6148 20.7456 54.8279 23.3656 54.8279Z" stroke="white" stroke-width="6" stroke-miterlimit="10"/>
</svg>
