<svg width="80" height="80" viewBox="0 0 80 80" fill="none" xmlns="http://www.w3.org/2000/svg">
<path d="M40 80C62.0914 80 80 62.0914 80 40C80 17.9086 62.0914 0 40 0C17.9086 0 0 17.9086 0 40C0 62.0914 17.9086 80 40 80Z" fill="#E41D20"/>
<path d="M25.2954 30.1716C25.6002 27.9621 28.4192 24.9907 30.7049 25.3716C32.9144 25.7526 34.6668 29.5621 35.5811 31.2383C36.2668 32.4574 35.8097 33.7526 35.2002 34.2097C34.3621 34.8955 32.9906 35.8859 33.2192 36.8764C33.7525 38.6288 39.7716 44.6478 42.743 46.4002C43.8859 47.0859 44.6478 45.3335 45.4097 44.4193C45.943 43.7335 47.1621 43.3526 48.3811 44.0383C50.2097 45.105 51.9621 46.324 53.5621 47.7716C54.324 48.4574 54.5525 49.4478 54.0192 50.4383C53.0287 52.2669 50.2097 54.705 48.1525 54.1716C44.5716 53.3336 30.0954 47.6955 25.4478 31.4669C25.2192 30.705 25.2954 30.4764 25.2954 30.1716Z" fill="white"/>
<path fill-rule="evenodd" clip-rule="evenodd" d="M39.9997 65.6761C37.0282 65.6761 35.4282 65.3713 32.7616 64.457L27.6568 66.9713C24.4568 68.5713 20.6473 66.2094 20.6473 62.6285V57.1428C15.4663 52.2666 13.4092 46.7047 13.4092 39.0094C13.4092 24.3047 25.2949 12.4189 39.9997 12.4189C54.7044 12.4189 66.5901 24.3047 66.5901 39.0094C66.5901 53.7904 54.7044 65.6761 39.9997 65.6761ZM25.4473 55.0856L23.9235 53.638C19.8854 49.8285 18.2092 45.638 18.2092 39.0094C18.2092 27.0475 27.9616 17.2951 39.9997 17.2951C52.0378 17.2951 61.7901 27.0475 61.7901 39.0856C61.7901 51.1237 52.0378 60.8761 39.9997 60.8761C37.6378 60.8761 36.4949 60.6475 34.2854 59.8856L32.3806 59.2761L25.5235 62.7047V55.0856H25.4473Z" fill="white"/>
</svg>
