<svg width="80" height="80" viewBox="0 0 80 80" fill="none" xmlns="http://www.w3.org/2000/svg">
<path d="M40 80C62.0914 80 80 62.0914 80 40C80 17.9086 62.0914 0 40 0C17.9086 0 0 17.9086 0 40C0 62.0914 17.9086 80 40 80Z" fill="#E41D20"/>
<path d="M58.7987 21.5005C60.2763 21.5005 61.3828 22.7925 60.7903 25.1982L53.5734 59.2055C53.0665 61.6254 51.6103 62.2036 49.5901 61.0829L32.3795 48.3694C32.1439 48.2052 32.0939 47.8769 32.2581 47.6484C32.2938 47.6056 32.3295 47.5628 32.3795 47.5271L52.2527 29.5812C53.1593 28.7817 52.06 28.389 50.8679 29.1172L25.9263 44.8573C25.7764 44.9573 25.5837 44.9787 25.4124 44.9216L14.819 41.5737C12.4633 40.8884 12.4633 39.2751 15.3472 38.1187L57.7208 21.7717C58.0563 21.6076 58.4203 21.5148 58.7915 21.5005H58.7987Z" fill="white"/>
<path d="M51.3754 62.7963C50.7401 62.7963 49.9548 62.6178 49.0269 62.0967L48.9626 62.061L48.9055 62.0182L31.702 49.3118C30.9524 48.7693 30.7811 47.72 31.3236 46.9705C31.4164 46.842 31.5235 46.7349 31.6449 46.6349L46.3642 33.3433L26.5623 45.8354C26.1126 46.1281 25.5629 46.1924 25.0561 46.0282L14.4913 42.6874C12.3641 42.0664 12 40.8743 11.9643 40.2175C11.9286 39.4894 12.2641 38.1046 14.9267 37.0409H14.941L57.2788 20.7083C57.7428 20.4941 58.2425 20.3728 58.7565 20.3442H58.8136C59.8558 20.3442 60.7624 20.7725 61.3763 21.5506C62.1258 22.5072 62.3257 23.892 61.9402 25.4625L54.7304 59.4555C54.4021 61.0188 53.7096 62.0539 52.6603 62.5393C52.3391 62.6892 51.9179 62.8034 51.3968 62.8034L51.3754 62.7963ZM50.219 60.098C50.84 60.4335 51.3682 60.5477 51.6752 60.412C51.9964 60.2621 52.2748 59.741 52.439 58.9701L59.6631 24.9342V24.9128C59.8772 24.0633 59.8272 23.3566 59.5346 22.9783C59.3775 22.7713 59.142 22.6642 58.835 22.6642C58.628 22.6785 58.4281 22.7285 58.2354 22.8213L58.1497 22.857L15.7762 39.2039C14.8839 39.5608 14.477 39.9034 14.3343 40.0819C14.4413 40.1676 14.6769 40.3175 15.148 40.4531H15.1766L25.5273 43.7368L50.2689 28.1251C51.5253 27.3613 52.8744 27.397 53.4812 28.2179C53.8595 28.7319 53.9738 29.6242 53.0386 30.4522L33.715 47.9056L50.2332 60.1051L50.219 60.098Z" fill="white"/>
</svg>
