<svg width="80" height="80" viewBox="0 0 80 80" fill="none" xmlns="http://www.w3.org/2000/svg">
<path d="M40 80C62.0914 80 80 62.0914 80 40C80 17.9086 62.0914 0 40 0C17.9086 0 0 17.9086 0 40C0 62.0914 17.9086 80 40 80Z" fill="#E41D20"/>
<path d="M42.4207 55.8271V47.2388C48.189 48.1169 50.0095 52.6573 53.6861 55.8271H63.0525C60.7109 50.6013 57.2199 45.9752 52.8365 42.2843C56.199 37.6511 59.7685 33.2963 61.5176 26.6855H53.0079C49.674 31.74 47.9106 37.6654 42.4278 41.5704V26.6855H30.0773L33.0257 30.3336V43.3338C28.2426 42.7769 25.0086 34.0245 21.5033 26.6927H12.6152C15.8492 36.6017 22.6527 58.34 42.4278 55.8271H42.4207Z" fill="white"/>
<path d="M39.3436 57.1906C31.9119 57.1906 25.6081 53.7282 20.568 46.8604C15.8848 40.4781 13.3361 32.6466 11.6442 27.4637L11.5086 27.0567C11.3943 26.6998 11.4514 26.3143 11.6727 26.0144C11.8941 25.7146 12.2439 25.5361 12.6151 25.5361H21.5032C21.953 25.5361 22.3599 25.7931 22.5526 26.2001C23.0738 27.2923 23.6021 28.4346 24.1089 29.5411C26.5219 34.7883 28.9992 40.1926 31.8619 41.7632V30.769L29.1705 27.4423C28.8921 27.0924 28.835 26.6141 29.0277 26.2072C29.2205 25.8003 29.6274 25.5433 30.0772 25.5433H42.4277C43.0702 25.5433 43.5914 26.0644 43.5914 26.7069V39.1289C46.0829 36.7658 47.6392 33.8674 49.274 30.8333C50.1236 29.2556 51.0088 27.6207 52.0297 26.0644C52.2439 25.736 52.608 25.5433 53.0006 25.5433H61.5103C61.8744 25.5433 62.21 25.7075 62.4313 26.0002C62.6526 26.2857 62.724 26.657 62.6312 27.0068C61.0106 33.1392 57.8694 37.4155 54.8282 41.549C54.6854 41.7417 54.5426 41.9345 54.3999 42.1272C58.5119 45.7896 61.8602 50.3443 64.1089 55.3701C64.2731 55.7271 64.2374 56.1483 64.0233 56.4767C63.8091 56.8051 63.4379 57.005 63.0452 57.005H53.6788C53.4004 57.005 53.1291 56.905 52.9221 56.7194C51.7584 55.72 50.7875 54.6063 49.8523 53.5283C47.9962 51.3937 46.3542 49.5161 43.5842 48.7023V55.8413C43.5842 56.4267 43.1487 56.9193 42.5633 56.9978C41.4639 57.1406 40.3859 57.2049 39.3365 57.2049L39.3436 57.1906ZM14.2214 27.8563C15.8634 32.8608 18.3049 39.8428 22.4455 45.4897C27.5071 52.386 33.6681 55.4415 41.264 54.7847V47.2459C41.264 46.9033 41.414 46.582 41.671 46.3607C41.928 46.1394 42.2706 46.0394 42.6062 46.0894C47.0681 46.7676 49.3811 49.4233 51.6156 51.9862C52.4081 52.9 53.2291 53.8353 54.1357 54.6634H61.2105C58.976 50.28 55.8491 46.3393 52.094 43.1767C51.6299 42.784 51.5442 42.0987 51.9012 41.599C52.2581 41.1135 52.6151 40.6209 52.9649 40.1426C55.742 36.366 58.3834 32.7751 59.9683 27.8492H53.6431C52.815 29.1628 52.0583 30.562 51.3301 31.9184C49.2883 35.7093 47.1752 39.6214 43.1059 42.5199C42.749 42.7698 42.2849 42.8055 41.8994 42.6056C41.5139 42.4057 41.2712 42.0059 41.2712 41.5704V27.8492H32.5259L33.9394 29.5982C34.1036 29.8053 34.1964 30.0623 34.1964 30.3336V43.3337C34.1964 43.6693 34.0536 43.9834 33.8037 44.2047C33.5539 44.426 33.2255 44.5331 32.8971 44.4903C28.1711 43.9406 25.1727 37.4083 21.9958 30.4978C21.596 29.6268 21.1819 28.7273 20.775 27.8563H14.2285H14.2214Z" fill="white"/>
</svg>
