<svg width="136" height="136" viewBox="0 0 136 136" fill="none" xmlns="http://www.w3.org/2000/svg">
<path d="M68 136C105.555 136 136 105.555 136 68C136 30.4446 105.555 0 68 0C30.4446 0 0 30.4446 0 68C0 105.555 30.4446 136 68 136Z" fill="#EA525B"/>
<path d="M68.0006 127.313C100.785 127.313 127.363 100.758 127.363 68.0001C127.363 35.2425 100.785 8.68726 68.0006 8.68726C35.2159 8.68726 8.63867 35.2425 8.63867 68.0001C8.63867 100.758 35.2159 127.313 68.0006 127.313Z" fill="#E41D20"/>
<path d="M98.0328 41.3394H37.9678C34.151 41.3394 31.1377 44.4347 31.1377 48.1293V87.8709C31.1377 91.6653 34.2514 94.6609 37.9678 94.6609H98.0328C101.85 94.6609 104.863 91.5655 104.863 87.8709V48.1293C104.863 44.3349 101.85 41.3394 98.0328 41.3394ZM37.9678 45.0339H98.0328C99.7403 45.0339 101.147 46.4318 101.147 48.1293V51.2247H34.8541V48.1293C34.8541 46.4318 36.2603 45.0339 37.9678 45.0339ZM98.0328 91.0662H37.9678C36.2603 91.0662 34.8541 89.6683 34.8541 87.9707V55.0192H101.147V87.9707C101.147 89.6683 99.7403 91.0662 98.0328 91.0662ZM52.1303 72.0941C55.7463 72.0941 58.7596 69.1983 58.7596 65.5038C58.7596 61.9091 55.8467 58.9135 52.1303 58.9135C48.5144 58.9135 45.501 61.8092 45.501 65.5038C45.501 69.1983 48.4139 72.0941 52.1303 72.0941ZM52.1303 62.7078C53.7374 62.7078 54.9427 64.006 54.9427 65.5038C54.9427 67.1014 53.637 68.2997 52.1303 68.2997C50.5232 68.2997 49.3179 67.0016 49.3179 65.5038C49.2174 64.006 50.5232 62.7078 52.1303 62.7078ZM52.1303 74.9898C46.7064 74.9898 42.2869 78.7843 41.0816 83.777V83.8768C41.0816 83.9766 41.0816 84.1764 41.0816 84.2762C41.0816 85.2748 41.8851 86.1733 42.99 86.1733C43.894 86.1733 44.597 85.5742 44.7979 84.6755C45.6015 81.2805 48.6148 78.7843 52.1303 78.7843C55.7463 78.7843 58.7596 81.2805 59.4627 84.6755C59.6636 85.4744 60.3666 86.1733 61.2706 86.1733C62.2751 86.1733 63.1791 85.3746 63.1791 84.2762C63.1791 84.1764 63.1791 83.9766 63.1791 83.8768C61.9738 78.7843 57.4538 75.0897 52.1303 74.9898ZM93.0106 61.21H73.0225C72.0181 61.21 71.114 62.0089 71.114 63.1073C71.114 64.2057 71.9176 65.0045 73.0225 65.0045H93.0106C94.0151 65.0045 94.9191 64.2057 94.9191 63.1073C94.9191 62.0089 94.0151 61.21 93.0106 61.21ZM93.0106 71.0955H73.0225C72.0181 71.0955 71.114 71.8944 71.114 72.9928C71.114 74.0912 71.9176 74.89 73.0225 74.89H93.0106C94.0151 74.89 94.9191 74.0912 94.9191 72.9928C94.9191 71.8944 94.0151 71.0955 93.0106 71.0955ZM93.0106 81.0809H73.0225C72.0181 81.0809 71.114 81.8797 71.114 82.9781C71.114 84.0765 71.9176 84.8753 73.0225 84.8753H93.0106C94.0151 84.8753 94.9191 84.0765 94.9191 82.9781C94.9191 81.8797 94.0151 81.0809 93.0106 81.0809Z" fill="white"/>
</svg>
