<svg width="137" height="136" viewBox="0 0 137 136" fill="none" xmlns="http://www.w3.org/2000/svg">
<path d="M68.2998 136C105.855 136 136.3 105.555 136.3 68C136.3 30.4447 105.855 0 68.2998 0C30.7444 0 0.299805 30.4447 0.299805 68C0.299805 105.555 30.7444 136 68.2998 136Z" fill="#EA525B"/>
<path d="M68.2994 127.313C101.084 127.313 127.661 100.758 127.661 68C127.661 35.2425 101.084 8.68726 68.2994 8.68726C35.5147 8.68726 8.9375 35.2425 8.9375 68C8.9375 100.758 35.5147 127.313 68.2994 127.313Z" fill="#E41D20"/>
<path d="M24.9079 61.1102L40.4765 68.3994V85.4743C40.4765 86.373 41.1797 87.072 42.0837 87.072H93.1088C94.0127 87.072 94.7158 86.373 94.7158 85.4743V68.3994L107.974 62.2086V73.6917C106.066 74.3907 104.76 76.0882 104.76 78.1851C104.76 80.8811 106.97 82.978 109.581 82.978C112.193 82.978 114.403 80.7813 114.403 78.1851C114.403 76.0882 113.097 74.2908 111.189 73.6917V59.7122C111.189 59.4127 111.088 59.2129 110.988 58.9134C110.988 58.8135 110.887 58.8136 110.887 58.7137C110.787 58.514 110.586 58.4142 110.385 58.2145C110.385 58.2145 110.385 58.2144 110.285 58.1146L68.2993 37.9442C67.8975 37.7445 67.2949 37.7445 66.8931 37.9442L24.9079 58.1146C24.3052 58.4141 24.0039 58.9134 24.0039 59.6124C24.0039 60.2115 24.3052 60.8106 24.9079 61.1102ZM91.5017 83.8767H43.6907V67.3011V61.3099L48.4116 60.6109C61.1678 58.6138 74.125 58.6138 86.8813 60.6109L91.6021 61.3099V67.3011L91.5017 83.8767ZM109.581 79.7827C108.677 79.7827 107.974 79.0838 107.974 78.1851C107.974 77.2864 108.677 76.5874 109.581 76.5874C110.485 76.5874 111.189 77.2864 111.189 78.1851C111.189 79.0838 110.485 79.7827 109.581 79.7827ZM67.5962 41.2394L105.865 59.6124L94.7158 64.8047V59.9119C94.7158 59.7122 94.7158 59.5125 94.6154 59.3128C94.6154 59.213 94.515 59.2129 94.515 59.1131C94.4145 59.0132 94.4145 58.9134 94.3141 58.8135C94.2136 58.7137 94.2136 58.7137 94.1132 58.6138C94.0127 58.514 93.9123 58.514 93.8119 58.4141C93.7114 58.4141 93.611 58.3143 93.611 58.3143C93.5105 58.3143 93.5105 58.2145 93.4101 58.2145L87.3835 57.2159C74.3259 55.119 60.967 55.119 47.9094 57.2159L41.8828 58.2145C41.7823 58.2145 41.7823 58.3143 41.6819 58.3143C41.5814 58.3143 41.481 58.3143 41.481 58.4141C41.3805 58.514 41.2801 58.514 41.1797 58.6138C41.0792 58.7137 41.0792 58.7137 40.9788 58.8135C40.8783 58.9134 40.8784 59.0132 40.7779 59.1131C40.7779 59.2129 40.6774 59.213 40.6774 59.3128C40.577 59.5125 40.577 59.7122 40.577 59.9119V64.8047L29.4278 59.6124L67.5962 41.2394Z" fill="white"/>
</svg>
