<svg width="161" height="79" viewBox="0 0 161 79" fill="none" xmlns="http://www.w3.org/2000/svg">
<g clip-path="url(#clip0_5_48)">
<path d="M42.2977 3.99462L38.4502 12.5842L39.5455 13.074L43.393 4.48438L42.2977 3.99462Z" fill="black"/>
<path d="M56.2206 17.5796L48.5908 22.9253L49.3085 23.9478L56.9382 18.6022L56.2206 17.5796Z" fill="black"/>
<path d="M60.5294 25.7343L52.3232 26.583L52.4519 27.8253L60.6581 26.9766L60.5294 25.7343Z" fill="black"/>
<path d="M59.775 34.701L55.7562 46.4657L50.5625 42.3755V42.2943C51.7439 39.1778 52.7456 35.9962 53.5625 32.7651L59.775 34.701Z" fill="#EA571D"/>
<path d="M54.5937 47.8084L47.1562 55.6141L42.5312 51.0993L42.5937 51.0431C45.0533 48.7969 47.3841 46.414 49.575 43.9055L54.5937 47.8084Z" fill="#EA571D"/>
<path d="M40.9686 7.81812L15.7998 59.4607L23.5873 62.7016L40.9686 7.81812Z" fill="#E41D20"/>
<path d="M31.9875 65.1933C25.7572 65.198 19.666 63.3527 14.4875 59.8916L18.8312 53.391C22.7241 55.9942 27.3032 57.3831 31.9875 57.3813C45.3125 57.3813 56.15 46.2597 56.15 32.5966C56.15 18.9335 45.3125 7.81195 31.9875 7.81195C18.6625 7.81195 7.81875 18.9273 7.81875 32.5966H0C0 14.6248 14.375 0 31.9875 0C49.6 0 63.9688 14.6248 63.9688 32.5966C63.9688 50.5685 49.6188 65.1933 31.9875 65.1933Z" fill="black"/>
<path d="M0.202153 31.3689L0.196289 32.5679L14.7461 32.6389L14.752 31.44L0.202153 31.3689Z" fill="black"/>
<path d="M3.8438 24.665L3.68945 25.854L13.5072 27.1263L13.6616 25.9373L3.8438 24.665Z" fill="black"/>
<path d="M6.19966 14.394L5.49805 15.3667L16.5617 23.3333L17.2633 22.3606L6.19966 14.394Z" fill="black"/>
<path d="M12.9988 10.38L12.0635 11.1311L17.7448 18.1936L18.6801 17.4425L12.9988 10.38Z" fill="black"/>
<path d="M17.1536 4.26102L16.1016 4.93555L23.3219 16.177L24.3739 15.5024L17.1536 4.26102Z" fill="black"/>
<path d="M25.8147 3.08034L24.6592 3.40356L27.2557 12.6701L28.4113 12.3469L25.8147 3.08034Z" fill="black"/>
<path d="M33.2951 1.51546L32.6973 13.7715L33.8958 13.8298L34.4936 1.57382L33.2951 1.51546Z" fill="black"/>
<path d="M45.8 9.81566L40.9219 17.3352L41.9288 17.9873L46.807 10.4678L45.8 9.81566Z" fill="black"/>
<path d="M53.2998 9.19629L47.0566 17.7629L48.0267 18.4687L54.2699 9.90203L53.2998 9.19629Z" fill="black"/>
<path d="M150.962 79H34.3623L44.3998 73.0427H161L150.962 79Z" fill="#EA571D"/>
<path d="M77.7502 57.8808H65.8252L70.1002 30.9043H82.0252L81.4627 34.5012H73.4002L72.1252 42.463H80.1502L79.5877 46.0973H71.5627L70.3127 54.2153H78.3752L77.7502 57.8808Z" fill="black"/>
<path d="M78.5434 58.8175H64.7246L69.2996 29.9739H83.1246L82.2684 35.4441H74.2059L73.2309 41.5138H81.2496L80.3934 47.0215H72.3621L71.3809 53.2661H79.4496L78.5434 58.8175ZM66.9184 56.9442H76.9496L77.2496 55.1083H69.1871L70.7621 45.1169H78.7809L79.0559 43.356H71.0246L72.5996 33.5395H80.6559L80.9246 31.816H70.9246L66.9184 56.9442Z" fill="black"/>
<path d="M90.9504 57.8808H85.2129L89.4879 30.9043H102.125L101.563 34.5386H92.7129L91.5504 41.6949H92.9379C97.9879 41.6699 100.513 43.7514 100.513 47.9395C100.513 48.5669 100.462 49.1933 100.363 49.8128C99.9316 52.4106 98.9191 54.4026 97.3066 55.7889C95.6941 57.1752 93.5754 57.8808 90.9504 57.8808ZM96.6504 48.4016C96.6504 46.3201 95.4004 45.2793 92.9004 45.2793H90.9879L89.5629 54.2715H91.4754C94.3921 54.2715 96.0796 52.7977 96.5379 49.8503C96.6139 49.3712 96.6515 48.8867 96.6504 48.4016Z" fill="black"/>
<path d="M90.9498 58.8175H84.1123L88.6873 29.9739H103.219L102.362 35.4816H93.5061L92.6498 40.7645H92.9373C95.9498 40.7645 98.1811 41.4639 99.6123 42.8876C100.862 44.0991 101.45 45.8039 101.45 47.9582C101.449 48.6359 101.394 49.3123 101.287 49.9815C100.825 52.7978 99.6936 54.9771 97.9123 56.5195C96.1311 58.0619 93.7936 58.8175 90.9498 58.8175ZM86.3061 56.9442H90.9498C93.3311 56.9442 95.2623 56.3197 96.6936 55.0708C98.2271 53.6497 99.2005 51.7268 99.4373 49.6505C99.5268 49.0803 99.5728 48.5042 99.5748 47.927C99.5748 46.2659 99.1498 45.042 98.2873 44.1803C97.2248 43.1249 95.4498 42.5941 92.9373 42.6066H90.4373L91.9061 33.577H100.75L101.025 31.816H90.2873L86.3061 56.9442ZM91.4748 55.1832H88.4623L90.181 44.3364H92.8998C96.9748 44.3364 97.5873 46.8967 97.5873 48.4203C97.5858 48.9473 97.544 49.4734 97.4623 49.994C96.9123 53.3848 94.8373 55.1832 91.4748 55.1832ZM90.6561 53.3098H91.4748C93.8936 53.3098 95.2248 52.1546 95.6123 49.6755C95.6757 49.2621 95.7091 48.8447 95.7123 48.4266C95.7123 47.2838 95.3686 46.216 92.8998 46.216H91.7873L90.6561 53.3098Z" fill="black"/>
<path d="M123.2 58.4053C116.9 58.4053 113.958 54.3089 114.375 46.116H111.375L109.5 57.8808H105.625L109.9 30.9042H113.75L111.95 42.2943H115C115.975 38.7724 117.412 36.0123 119.312 34.014C120.363 32.8434 121.654 31.9129 123.097 31.2857C124.54 30.6585 126.102 30.3495 127.675 30.3797C130.675 30.3797 132.967 31.4663 134.55 33.6394C135.95 35.5627 136.65 38.073 136.65 41.1703C136.678 45.2625 135.447 49.2644 133.125 52.6353C130.533 56.482 127.225 58.4053 123.2 58.4053ZM132.688 41.8385C132.757 40.0327 132.324 38.2431 131.438 36.668C130.998 35.8926 130.351 35.2544 129.57 34.8245C128.789 34.3945 127.903 34.1896 127.012 34.2326C124.096 34.2326 121.804 35.8437 120.137 39.0659C118.761 41.772 118.066 44.773 118.112 47.8083C118.112 52.3543 120 54.6274 123.775 54.6274C126.5 54.6274 128.725 53.1287 130.45 50.1313C131.921 47.6149 132.693 44.7523 132.688 41.8385Z" fill="black"/>
<path d="M123.2 59.3235C120.206 59.3235 117.856 58.4492 116.206 56.7195C114.256 54.6713 113.306 51.4178 113.381 47.0342H112.131L110.256 58.7989H104.531L109.125 29.974H114.844L113.044 41.3641H114.294C115.095 38.3996 116.58 35.664 118.631 33.3773C119.769 32.1135 121.165 31.1088 122.726 30.4311C124.286 29.7534 125.974 29.4187 127.675 29.4495C130.975 29.4495 133.544 30.6984 135.294 33.0963C136.806 35.1757 137.575 37.8984 137.575 41.1768C137.61 45.4535 136.336 49.6388 133.925 53.1726C131.137 57.2628 127.537 59.3235 123.2 59.3235ZM110.55 45.1795H115.331L115.281 46.1662C115.075 50.5374 115.838 53.6596 117.563 55.4456C118.863 56.8069 120.688 57.4688 123.188 57.4688C126.938 57.4688 129.912 55.7203 132.344 52.111C134.548 48.8903 135.71 45.0719 135.675 41.1705C135.675 38.2918 135.05 35.9438 133.75 34.1953C132.35 32.2595 130.356 31.3166 127.65 31.3166C126.209 31.2866 124.779 31.5692 123.459 32.1449C122.138 32.7206 120.958 33.5757 120 34.6512C118.206 36.5246 116.831 39.191 115.9 42.5443L115.712 43.2312H110.863L112.65 31.8474H110.725L106.744 56.9505H108.675L110.55 45.1795ZM123.8 55.5205C120.788 55.5205 117.2 54.1779 117.2 47.7648C117.157 44.5837 117.888 41.4399 119.331 38.604C121.144 35.0633 123.706 33.2649 127.025 33.2649C128.078 33.2189 129.123 33.4646 130.045 33.9748C130.967 34.485 131.73 35.2399 132.25 36.1561C133.227 37.8861 133.703 39.8537 133.625 41.8387C133.632 44.9078 132.825 47.9241 131.287 50.5811C129.375 53.8532 126.875 55.5205 123.8 55.5205ZM127.025 35.1383C124.456 35.1383 122.487 36.5558 120.994 39.4657C119.692 42.0365 119.034 44.8841 119.075 47.7648C119.075 53.0414 121.769 53.6472 123.8 53.6472C126.181 53.6472 128.1 52.3295 129.663 49.6257C131.029 47.2574 131.748 44.5722 131.75 41.8387C131.815 40.1958 131.426 38.5668 130.625 37.1303C130.269 36.4974 129.744 35.9759 129.108 35.6241C128.472 35.2723 127.751 35.1041 127.025 35.1383Z" fill="black"/>
<path d="M155.825 34.5386H151.362L147.65 57.8808H143.712L147.425 34.5386H143L143.562 30.9043H156.387L155.825 34.5386Z" fill="black"/>
<path d="M148.45 58.8175H142.612L146.325 35.4753H141.906L142.756 29.9739H157.5L156.644 35.4816H152.181L148.45 58.8175ZM144.806 56.9442H146.875L150.587 33.602H155L155.275 31.841H144.375L144.106 33.602H148.531L144.806 56.9442Z" fill="black"/>
<path d="M125.644 74.3102H2.79395L13.3689 68.3467H136.225L125.644 74.3102Z" fill="#E41D20"/>
<path d="M75.569 19.3893H74.2627L74.1127 18.9272H74.0315C73.8105 19.0981 73.5691 19.2408 73.3127 19.3519C72.9731 19.4869 72.6093 19.5507 72.244 19.5392C71.9033 19.5544 71.5636 19.4925 71.2502 19.3581C70.9512 19.2073 70.7065 18.9673 70.5502 18.6712C70.3557 18.2825 70.247 17.8566 70.2315 17.4223C70.1976 16.8049 70.2438 16.1857 70.369 15.5801C70.4598 14.9358 70.6342 14.3061 70.8877 13.7068C71.0827 13.2399 71.3672 12.8156 71.7252 12.4579C72.0577 12.1433 72.4573 11.9084 72.894 11.7709C73.3904 11.6219 73.9069 11.5503 74.4252 11.5586C74.882 11.5508 75.3384 11.5884 75.7877 11.671C76.1625 11.7503 76.5288 11.8653 76.8815 12.0145L75.569 19.3893ZM74.219 12.6514C74.0039 12.6524 73.7913 12.697 73.594 12.7826C73.3705 12.8868 73.177 13.0457 73.0315 13.2447C72.8312 13.5161 72.6752 13.8175 72.569 14.1376C72.4036 14.5998 72.2822 15.0765 72.2065 15.5614C72.115 16.0306 72.0669 16.5072 72.0627 16.9852C72.0528 17.2878 72.095 17.5899 72.1877 17.8781C72.2491 18.0689 72.3751 18.2323 72.544 18.3402C72.7021 18.4293 72.8812 18.4746 73.0627 18.4714C73.2441 18.4733 73.4243 18.4416 73.594 18.3777C73.7298 18.3281 73.8566 18.2563 73.969 18.1654L74.9315 12.6514H74.219Z" fill="#E41D20"/>
<path d="M80.406 11.8646C80.8156 11.7517 81.2336 11.6724 81.656 11.6273C82.1293 11.5763 82.6051 11.5534 83.081 11.5586C83.5186 11.5525 83.9558 11.5859 84.3873 11.6585C84.7069 11.7058 85.0121 11.8231 85.2811 12.0019C85.5024 12.1537 85.6689 12.3727 85.7561 12.6264C85.8367 12.9693 85.8367 13.3263 85.7561 13.6692C85.7084 13.888 85.6283 14.0985 85.5186 14.2937C85.4179 14.4605 85.2937 14.6119 85.1498 14.7433C85.014 14.8601 84.8651 14.9607 84.7061 15.043C84.5436 15.118 84.3936 15.1804 84.2498 15.2304V15.2928C84.4188 15.3477 84.5821 15.4188 84.7373 15.5051C84.9029 15.5998 85.0492 15.7248 85.1686 15.8736C85.2959 16.0358 85.3875 16.223 85.4373 16.4231C85.4909 16.6721 85.4909 16.9297 85.4373 17.1787C85.3783 17.5777 85.2425 17.9615 85.0373 18.3089C84.858 18.6007 84.6089 18.8432 84.3123 19.0146C83.98 19.2006 83.6151 19.3214 83.2373 19.3705C82.77 19.4423 82.2976 19.4757 81.8248 19.4704C81.3093 19.4771 80.7939 19.4541 80.2811 19.4017C79.8848 19.3601 79.4934 19.2806 79.1123 19.1645L80.406 11.8646ZM81.9998 18.4463C82.1704 18.4448 82.3402 18.4239 82.506 18.3839C82.6679 18.3416 82.8205 18.2696 82.9561 18.1716C83.1018 18.0607 83.2248 17.9229 83.3186 17.7657C83.4292 17.5733 83.5014 17.3612 83.531 17.1412C83.5762 16.9843 83.5797 16.8183 83.5414 16.6596C83.5031 16.5009 83.4241 16.3548 83.3123 16.2358C83.0607 16.0522 82.755 15.9577 82.4436 15.9672H81.5248L81.0811 18.4651L81.9998 18.4463ZM82.1061 12.6264L81.7248 14.8495H82.4998C82.7954 14.8495 83.0845 14.7626 83.3311 14.5997C83.4683 14.5058 83.5839 14.3836 83.6701 14.2415C83.7564 14.0993 83.8112 13.9404 83.8311 13.7754C83.8724 13.5988 83.8724 13.415 83.8311 13.2384C83.7883 13.1069 83.7155 12.9872 83.6185 12.8887C83.5268 12.7951 83.4129 12.7264 83.2873 12.6888C83.1574 12.6503 83.0228 12.6293 82.8873 12.6264H82.1061Z" fill="#E41D20"/>
<path d="M93.75 19.3893H91.875L92.8125 14.0315C92.8553 13.8108 92.8553 13.584 92.8125 13.3633C92.7895 13.2086 92.7271 13.0623 92.6313 12.9387C92.5509 12.8353 92.4424 12.7572 92.3188 12.7139C92.2037 12.6759 92.0837 12.6549 91.9625 12.6514C91.7831 12.6487 91.6049 12.6805 91.4375 12.7451C91.3033 12.7901 91.1799 12.8624 91.075 12.9574L90 19.3893H88.125L89.4687 11.7335H90.775L90.9125 12.1956H90.9875C91.2135 12.0221 91.4615 11.8794 91.725 11.7709C92.0861 11.6347 92.4705 11.571 92.8563 11.5836C93.1842 11.572 93.5113 11.6251 93.8187 11.7397C94.0613 11.8383 94.2759 11.9948 94.4437 12.1956C94.7178 11.9971 95.0216 11.8432 95.3438 11.7397C95.7315 11.6279 96.134 11.5753 96.5375 11.5836C96.8281 11.5807 97.1178 11.6143 97.4 11.6835C97.6533 11.7395 97.884 11.87 98.0625 12.0582C98.2577 12.2662 98.388 12.5266 98.4375 12.8075C98.5137 13.2215 98.5031 13.6468 98.4062 14.0564L97.5 19.3893H95.625L96.5563 14.0315C96.5991 13.8108 96.5991 13.584 96.5563 13.3633C96.5245 13.2078 96.4559 13.0622 96.3562 12.9387C96.2701 12.8331 96.155 12.755 96.025 12.7139C95.8995 12.6744 95.769 12.6533 95.6375 12.6514C95.4581 12.6503 95.2794 12.6734 95.1062 12.7201C94.957 12.7646 94.8109 12.8188 94.6688 12.8825C94.6813 13.0425 94.6813 13.2033 94.6688 13.3633C94.6671 13.588 94.642 13.812 94.5938 14.0315L93.75 19.3893Z" fill="#E41D20"/>
<path d="M105.044 11.5836C105.483 11.5725 105.919 11.6445 106.331 11.7959C106.676 11.9306 106.969 12.1711 107.169 12.4828C107.396 12.8612 107.522 13.2909 107.538 13.7317C107.575 14.3587 107.535 14.9879 107.419 15.6051C107.309 16.2366 107.131 16.8543 106.888 17.4472C106.701 17.911 106.427 18.3349 106.081 18.6961C105.774 18.9938 105.405 19.2198 105 19.3581C104.563 19.5057 104.105 19.5775 103.644 19.5704C103.205 19.5821 102.768 19.51 102.356 19.3581C102.011 19.2234 101.718 18.9829 101.519 18.6712C101.301 18.2891 101.174 17.8615 101.15 17.4222C101.114 16.8051 101.158 16.1859 101.281 15.5801C101.376 14.9373 101.548 14.3083 101.794 13.7067C101.981 13.243 102.254 12.8191 102.6 12.4578C102.905 12.1518 103.275 11.9172 103.681 11.7709C104.121 11.6306 104.582 11.5672 105.044 11.5836ZM104.875 12.5765C104.698 12.5771 104.524 12.6222 104.369 12.7076C104.177 12.8236 104.016 12.9843 103.9 13.1759C103.722 13.463 103.581 13.7714 103.481 14.0939C103.324 14.5729 103.205 15.0636 103.125 15.5614C103.026 16.0448 102.968 16.5357 102.95 17.0288C102.937 17.3381 102.97 17.6476 103.05 17.9468C103.095 18.1336 103.203 18.2991 103.356 18.4151C103.494 18.5041 103.655 18.5498 103.819 18.5463C103.996 18.5441 104.169 18.4991 104.325 18.4151C104.518 18.2979 104.68 18.1375 104.8 17.9468C104.978 17.6597 105.119 17.3513 105.219 17.0288C105.37 16.5476 105.491 16.0575 105.581 15.5614C105.669 15.0767 105.721 14.5862 105.738 14.0939C105.75 13.7838 105.712 13.4738 105.625 13.1759C105.596 12.9968 105.503 12.8344 105.362 12.7193C105.222 12.6043 105.044 12.5446 104.863 12.5515L104.875 12.5765Z" fill="#E41D20"/>
<path d="M115 11.7336H116.837L115.887 17.0915C115.845 17.3121 115.845 17.539 115.887 17.7596C115.92 17.9137 115.986 18.0587 116.081 18.1843C116.159 18.2875 116.266 18.3656 116.387 18.4091C116.498 18.4474 116.614 18.4684 116.731 18.4715C116.912 18.4735 117.093 18.4417 117.262 18.3779C117.398 18.3282 117.525 18.2565 117.637 18.1655L118.75 11.7336H120.587L119.244 19.3895H117.937L117.787 18.9274H117.706C117.482 19.0995 117.236 19.2422 116.975 19.352C116.612 19.4883 116.225 19.5519 115.837 19.5393C115.509 19.5509 115.182 19.4979 114.875 19.3832C114.631 19.2873 114.416 19.1303 114.25 18.9274C113.973 19.1247 113.667 19.2784 113.344 19.3832C112.956 19.4954 112.553 19.5481 112.15 19.5393C111.861 19.5426 111.574 19.509 111.294 19.4394C111.038 19.3835 110.806 19.2531 110.625 19.0648C110.434 18.8534 110.305 18.5945 110.25 18.3154C110.167 17.9033 110.167 17.4787 110.25 17.0665L111.25 11.7336H113.087L112.137 17.0915C112.091 17.3118 112.091 17.5394 112.137 17.7596C112.167 17.9159 112.235 18.0621 112.337 18.1843C112.421 18.2897 112.534 18.3679 112.662 18.4091C112.79 18.4481 112.923 18.4691 113.056 18.4715C113.233 18.4727 113.41 18.4496 113.581 18.4028C113.731 18.3594 113.877 18.3051 114.019 18.2405C114.004 18.0805 114.004 17.9196 114.019 17.7596C114.021 17.5353 114.044 17.3116 114.087 17.0915L115 11.7336Z" fill="#E41D20"/>
<path d="M126.963 15.3615C127.233 15.4263 127.479 15.5697 127.669 15.7737C127.901 16.0598 128.026 16.4172 128.025 16.7853L128.113 18.0342C128.136 18.1975 128.216 18.3476 128.338 18.4588C128.501 18.5966 128.712 18.664 128.925 18.6462L128.806 19.4143C128.706 19.4465 128.604 19.4716 128.5 19.4892C128.262 19.5423 128.019 19.5675 127.775 19.5641C127.37 19.5953 126.969 19.4676 126.656 19.2082C126.408 18.9549 126.261 18.6194 126.244 18.2653L126.106 16.8103C126.102 16.5852 126.028 16.3669 125.894 16.1858C125.837 16.1141 125.765 16.0564 125.683 16.0174C125.6 15.9784 125.51 15.9591 125.419 15.961H125.188L124.563 19.408H122.75L124.1 11.7522H125.938L125.388 14.812H125.625C125.757 14.8041 125.881 14.7487 125.975 14.6559C126.168 14.4514 126.334 14.2226 126.469 13.9752L127.094 12.8262C127.286 12.4736 127.55 12.1652 127.869 11.9208C128.2 11.6975 128.594 11.5859 128.994 11.6023C129.119 11.5958 129.244 11.5958 129.369 11.6023L129.681 11.6585L129.975 11.7334L129.863 12.489C129.644 12.4702 129.426 12.5204 129.238 12.6327C129.111 12.71 129.006 12.8172 128.931 12.9449L128.363 13.944C128.183 14.2936 127.951 14.6137 127.675 14.8932C127.475 15.079 127.232 15.2139 126.969 15.2866L126.963 15.3615Z" fill="#E41D20"/>
<path d="M135.532 11.5836C135.97 11.5725 136.407 11.6446 136.819 11.7959C137.164 11.9306 137.457 12.1711 137.657 12.4828C137.883 12.8612 138.01 13.291 138.025 13.7318C138.063 14.3587 138.023 14.9879 137.907 15.6051C137.797 16.2366 137.619 16.8543 137.375 17.4473C137.189 17.9111 136.915 18.3349 136.569 18.6962C136.265 19.0035 135.895 19.2383 135.488 19.3831C135.054 19.5312 134.597 19.603 134.138 19.5954C133.699 19.6077 133.262 19.5357 132.85 19.3831C132.504 19.2503 132.211 19.0094 132.013 18.6962C131.795 18.3141 131.668 17.8865 131.644 17.4473C131.608 16.8301 131.652 16.2109 131.775 15.6051C131.87 14.9624 132.042 14.3334 132.288 13.7318C132.485 13.2677 132.769 12.8458 133.125 12.4891C133.431 12.1831 133.8 11.9485 134.207 11.8022C134.633 11.6555 135.081 11.5816 135.532 11.5836ZM135.363 12.5765C135.186 12.5771 135.012 12.6222 134.857 12.7077C134.665 12.8236 134.504 12.9843 134.388 13.176C134.21 13.463 134.069 13.7715 133.969 14.0939C133.812 14.573 133.693 15.0636 133.613 15.5614C133.514 16.0449 133.455 16.5357 133.438 17.0289C133.425 17.3382 133.458 17.6477 133.538 17.9468C133.583 18.1336 133.691 18.2992 133.844 18.4152C133.982 18.5042 134.143 18.5498 134.307 18.5463C134.482 18.5449 134.654 18.4998 134.807 18.4152C135.002 18.3015 135.165 18.1404 135.282 17.9468C135.464 17.6615 135.607 17.3527 135.707 17.0289C135.855 16.5474 135.974 16.0574 136.063 15.5614C136.156 15.0773 136.21 14.5866 136.225 14.0939C136.242 13.7846 136.208 13.4746 136.125 13.176C136.081 12.9892 135.972 12.8237 135.819 12.7077C135.684 12.6195 135.525 12.5739 135.363 12.5765Z" fill="#E41D20"/>
<path d="M147.388 11.7335L146.038 19.3894H144.2L145.331 12.8825H143.75L142.8 16.9415C142.666 17.6755 142.328 18.357 141.825 18.9085C141.435 19.3032 140.905 19.5278 140.35 19.533C140.123 19.5371 139.896 19.5119 139.675 19.4581L139.388 19.3831L139.506 18.6151C139.82 18.596 140.114 18.46 140.331 18.2341C140.663 17.8719 140.88 17.4202 140.956 16.9353L142.206 11.7273L147.388 11.7335Z" fill="#E41D20"/>
<path d="M155.075 19.3894H153.75L153.6 18.9273H153.519C153.298 19.0982 153.057 19.2409 152.8 19.352C152.461 19.4865 152.097 19.5503 151.732 19.5393C151.38 19.549 151.031 19.4763 150.713 19.327C150.414 19.1762 150.169 18.9361 150.013 18.6401C149.818 18.2514 149.71 17.8255 149.694 17.3912C149.658 16.774 149.702 16.1548 149.825 15.549C149.921 14.905 150.097 14.2756 150.35 13.6757C150.543 13.2091 150.825 12.7848 151.182 12.4267C151.517 12.1133 151.919 11.8786 152.357 11.7398C152.853 11.5908 153.369 11.5192 153.888 11.5275C154.345 11.5201 154.801 11.5578 155.25 11.6399C155.623 11.7183 155.987 11.8333 156.338 11.9834L155.075 19.3894ZM153.75 12.6515C153.535 12.652 153.322 12.6966 153.125 12.7827C152.902 12.8869 152.708 13.0458 152.563 13.2448C152.36 13.5158 152.202 13.8172 152.094 14.1378C151.934 14.6011 151.815 15.0775 151.738 15.5615C151.645 16.0306 151.594 16.5071 151.588 16.9853C151.583 17.2881 151.627 17.5897 151.719 17.8782C151.778 18.07 151.905 18.234 152.075 18.3403C152.233 18.4295 152.412 18.4747 152.594 18.4715C152.775 18.4734 152.956 18.4417 153.125 18.3778C153.261 18.3282 153.388 18.2564 153.5 18.1655L154.463 12.6515H153.75Z" fill="#E41D20"/>
</g>
<defs>
<clipPath id="clip0_5_48">
<rect width="161" height="79" fill="white"/>
</clipPath>
</defs>
</svg>
