<svg width="137" height="136" viewBox="0 0 137 136" fill="none" xmlns="http://www.w3.org/2000/svg">
<path d="M68.2998 136C105.855 136 136.3 105.555 136.3 68C136.3 30.4446 105.855 0 68.2998 0C30.7444 0 0.299805 30.4446 0.299805 68C0.299805 105.555 30.7444 136 68.2998 136Z" fill="#EA525B"/>
<path d="M68.2997 127.319C101.089 127.319 127.67 100.761 127.67 68.0001C127.67 35.239 101.089 8.68091 68.2997 8.68091C35.5105 8.68091 8.92969 35.239 8.92969 68.0001C8.92969 100.761 35.5105 127.319 68.2997 127.319Z" fill="#E41D20"/>
<path d="M61.8533 98.2796V98.1763L62.4771 95.2827H46.9847V41.1307H88.9908V62.4194L93.1499 58.4924V39.0638C93.1499 37.927 92.2141 36.9969 91.0704 36.9969H45.0092C43.8655 36.9969 42.9297 37.927 42.9297 39.0638V97.3495C42.9297 98.4863 43.8655 99.4164 45.0092 99.4164H61.7492C61.7492 99.003 61.8533 98.693 61.8533 98.2796Z" fill="white"/>
<path d="M84.8316 72.6504L83.168 74.3039C83.9998 74.0972 84.6236 73.4771 84.8316 72.6504Z" fill="white"/>
<path d="M106.355 67.7933L99.2849 60.7659C97.9333 59.4224 95.8537 59.4224 94.502 60.7659L65.8048 89.4954L63.4134 99.5197C62.9975 101.38 64.2452 103.137 66.0128 103.447C66.2207 103.447 66.4286 103.447 66.6366 103.447C66.8445 103.447 67.1565 103.447 67.3644 103.447L77.554 101.173L106.251 72.6504C107.603 71.3069 107.603 69.2401 106.251 67.8966V67.7933H106.355ZM75.5785 97.4528L67.8843 99.1063L69.7559 91.5623L91.2788 69.9635L97.2054 75.8541L75.5785 97.4528ZM99.4928 73.4771L93.5663 67.5866L96.8935 64.2796L102.82 70.1702L99.4928 73.4771Z" fill="white"/>
<path d="M81.2971 48.6748H56.0311C54.6794 48.6748 53.6396 49.9149 53.6396 51.3617C53.6396 52.8085 54.6794 54.0487 56.0311 54.0487H81.2971C82.6488 54.0487 83.6886 52.8085 83.6886 51.3617C83.6886 49.9149 82.5448 48.6748 81.2971 48.6748Z" fill="white"/>
<path d="M78.6977 60.9727H55.8231C54.6794 60.9727 53.6396 62.2128 53.6396 63.6596C53.6396 65.1064 54.5754 66.3465 55.8231 66.3465H78.6977C79.8415 66.3465 80.8813 65.1064 80.8813 63.6596C80.8813 62.2128 79.8415 60.9727 78.6977 60.9727Z" fill="white"/>
<path d="M71.7314 72.9604H55.1993C54.3675 72.9604 53.6396 74.2006 53.6396 75.6474C53.6396 77.0942 54.3675 78.3343 55.1993 78.3343H71.7314C72.5632 78.3343 73.2911 77.0942 73.2911 75.6474C73.2911 74.2006 72.5632 72.9604 71.7314 72.9604Z" fill="white"/>
</svg>
