<svg width="35" height="30" viewBox="0 0 35 30" fill="none" xmlns="http://www.w3.org/2000/svg">
<path d="M32.6345 0.883301C33.6467 0.883301 34.4118 1.77618 34.0031 3.43302L29.0516 26.8962C28.7047 28.5626 27.7021 28.9637 26.3193 28.1902L14.5014 19.4189C14.3398 19.3043 14.3065 19.0799 14.4206 18.9223C14.4444 18.8889 14.4729 18.8651 14.5014 18.8412L28.1488 6.46022C28.7713 5.90635 28.0157 5.63896 27.1984 6.14031L10.0726 16.9981C9.96808 17.065 9.83503 17.0841 9.71623 17.0411L2.44585 14.7301C0.830216 14.2574 0.830216 13.1401 2.81175 12.3475L31.9028 1.07429C32.1356 0.964472 32.3827 0.897625 32.6393 0.888076L32.6345 0.883301Z" fill="#E41D20"/>
<path d="M27.5359 29.3696C27.0987 29.3696 26.5618 29.2454 25.9202 28.8873L25.8775 28.8634L25.8347 28.8348L14.0215 20.0683C13.5083 19.6959 13.3895 18.9701 13.7602 18.4544C13.822 18.3685 13.898 18.2873 13.9788 18.2253L24.086 9.05294L10.4909 17.6714C10.182 17.8719 9.80662 17.9197 9.45498 17.8051L2.19886 15.4989C0.740036 15.0691 0.488187 14.2479 0.464427 13.7943C0.440668 13.2882 0.673511 12.3332 2.49823 11.6027H2.50774L31.575 0.334225C31.8934 0.186208 32.2355 0.100262 32.5871 0.0859375H32.6252C33.3379 0.0859375 33.9652 0.381973 34.3833 0.921521C34.8965 1.58044 35.0344 2.54016 34.773 3.61926L29.8215 27.0681C29.5982 28.1472 29.1183 28.8634 28.4007 29.1929C28.1821 29.2932 27.8923 29.3743 27.5311 29.3743L27.5359 29.3696ZM26.7423 27.5122C27.17 27.7461 27.5311 27.8225 27.7402 27.727C27.9636 27.6268 28.1536 27.2639 28.2629 26.7339L33.2191 3.25638V3.24205C33.3664 2.65476 33.3332 2.16773 33.1288 1.90512C33.0196 1.76188 32.858 1.69026 32.6489 1.68548C32.5064 1.69503 32.3686 1.73323 32.2402 1.7953L32.1832 1.81918L3.09222 13.0924C2.47922 13.3407 2.19886 13.5746 2.10383 13.6988C2.1751 13.7561 2.33667 13.8611 2.66455 13.9566H2.68356L9.79237 16.2199L26.7803 5.45277C27.6404 4.92755 28.567 4.95142 28.9852 5.51484C29.2466 5.86818 29.3226 6.48412 28.6811 7.05709L15.4138 19.0943L26.7518 27.5074L26.7423 27.5122Z" fill="#E41D20"/>
</svg>
