<svg width="38" height="24" viewBox="0 0 38 24" fill="none" xmlns="http://www.w3.org/2000/svg">
<path d="M22.294 22.7883V16.4842C26.4356 17.1318 27.7468 20.461 30.3841 22.7883H37.1086C35.4262 18.9532 32.9176 15.5533 29.7706 12.8464C32.1852 9.44647 34.7484 6.24888 36.0002 1.39178H29.8893C27.4945 5.10544 26.2277 9.45659 22.294 12.3203V1.39178H13.4271L15.5448 4.06824V13.6104C12.1109 13.2006 9.78526 6.77506 7.27164 1.38672H0.893555C3.21421 8.66225 8.09797 24.6249 22.299 22.7833L22.294 22.7883Z" fill="#E41D20"/>
<path d="M20.0818 23.7902C14.7428 23.7902 10.2153 21.2452 6.59826 16.206C3.23851 11.5209 1.40277 5.7683 0.190485 1.95851L0.0964711 1.65494C0.0123537 1.39691 0.0568873 1.10852 0.215226 0.885902C0.373565 0.663285 0.625917 0.531738 0.893113 0.531738H7.27119C7.59282 0.531738 7.88476 0.71894 8.0233 1.01745C8.39936 1.82191 8.77541 2.65672 9.13662 3.46624C10.8685 7.32156 12.6498 11.2882 14.7082 12.4418V4.36682L12.7784 1.9231C12.5755 1.66506 12.536 1.31596 12.6745 1.01745C12.8131 0.71894 13.105 0.531738 13.4266 0.531738H22.2936C22.7538 0.531738 23.1298 0.91626 23.1298 1.38679V10.509C24.9161 8.77363 26.0393 6.64359 27.212 4.41742C27.8255 3.2588 28.4589 2.05464 29.1912 0.91626C29.3446 0.678464 29.6068 0.531738 29.8889 0.531738H35.9998C36.2571 0.531738 36.5045 0.653166 36.6628 0.865664C36.8212 1.07816 36.8756 1.35138 36.8063 1.60435C35.6435 6.10729 33.3872 9.24416 31.2001 12.2799C31.1012 12.4215 30.9973 12.5632 30.8934 12.7048C33.8474 15.3914 36.2472 18.7408 37.8652 22.4292C37.979 22.6923 37.9592 23.0009 37.8058 23.2437C37.6524 23.4866 37.3852 23.6333 37.1032 23.6333H30.3788C30.1759 23.6333 29.9829 23.5574 29.8345 23.4259C28.9982 22.6923 28.3055 21.8726 27.6276 21.0833C26.2916 19.52 25.1189 18.1387 23.1249 17.5366V22.7783C23.1249 23.2083 22.8131 23.5726 22.3925 23.6283C21.6058 23.7295 20.8289 23.78 20.0719 23.78L20.0818 23.7902ZM2.04107 2.25196C3.22366 5.92514 4.97034 11.0504 7.94908 15.1992C11.581 20.2637 16.0095 22.5051 21.4623 22.0244V16.4893C21.4623 16.2414 21.5662 16.0036 21.7542 15.8417C21.9373 15.6798 22.1847 15.609 22.4272 15.6444C25.6335 16.1453 27.2911 18.0932 28.8993 19.9753C29.4683 20.6432 30.0571 21.3313 30.7103 21.9435H35.792C34.1888 18.7256 31.9423 15.8316 29.2456 13.5093C28.9092 13.2209 28.8498 12.715 29.1071 12.3507C29.3594 11.9915 29.6217 11.6322 29.874 11.2831C31.8681 8.51054 33.7632 5.87455 34.9013 2.25702H30.359C29.7602 3.22338 29.2209 4.25046 28.6964 5.24211C27.2318 8.02483 25.7127 10.8986 22.7933 13.0287C22.536 13.2159 22.2045 13.2412 21.9274 13.0944C21.6503 12.9477 21.4722 12.6543 21.4722 12.3355V2.26208H15.1881L16.2025 3.54719C16.3212 3.69897 16.3905 3.89123 16.3905 4.08349V13.6257C16.3905 13.8685 16.2866 14.1013 16.1085 14.2632C15.9303 14.4251 15.6928 14.501 15.4553 14.4757C12.0609 14.0709 9.90852 9.27958 7.62746 4.19986C7.34047 3.55731 7.04358 2.89957 6.7467 2.25702H2.04602L2.04107 2.25196Z" fill="#E41D20"/>
</svg>
