<svg width="259" height="127" viewBox="0 0 259 127" fill="none" xmlns="http://www.w3.org/2000/svg">
<path d="M69.2301 7.28857L63.0801 20.9801" stroke="white" stroke-width="1.92" stroke-miterlimit="10"/>
<path d="M91.21 29.3584L79 37.8758" stroke="white" stroke-width="2" stroke-miterlimit="10"/>
<path d="M97.6398 42.5225L84.5098 43.8757" stroke="white" stroke-width="2" stroke-miterlimit="10"/>
<path d="M96.3201 55.8258L89.8901 74.5721L81.5801 68.0546V67.9253C83.4704 62.9594 85.073 57.8897 86.3801 52.7412L96.3201 55.8258Z" fill="white" stroke="white" stroke-miterlimit="10"/>
<path d="M88.0305 76.7116L76.1305 89.1494L68.7305 81.9554L68.8305 81.8658C72.7658 78.2868 76.495 74.4897 80.0005 70.4927L88.0305 76.7116Z" fill="white" stroke="white" stroke-miterlimit="10"/>
<path d="M66.23 12.9902L25.96 95.2788L38.42 100.443L66.23 12.9902Z" fill="white" stroke="white" stroke-miterlimit="10"/>
<path d="M6.94043 52.4727C6.94043 27.2189 27.0504 6.76123 51.8604 6.76123C76.6704 6.76123 96.7804 27.2189 96.7804 52.4727C96.7804 77.7264 76.6804 98.1841 51.8604 98.1841C43.13 98.1916 34.5946 95.6147 27.3404 90.7811" stroke="white" stroke-width="12.51" stroke-miterlimit="10"/>
<path d="M1 51.4775L24.28 51.5987" stroke="white" stroke-width="1.92" stroke-miterlimit="10"/>
<path d="M6.70996 40.7812L22.41 42.8111" stroke="white" stroke-width="1.92" stroke-miterlimit="10"/>
<path d="M10.04 24.2437L27.73 36.9302" stroke="white" stroke-width="1.92" stroke-miterlimit="10"/>
<path d="M20.7402 17.6768L29.8302 28.9205" stroke="white" stroke-width="1.92" stroke-miterlimit="10"/>
<path d="M27.2803 7.85596L38.8303 25.7664" stroke="white" stroke-width="2" stroke-miterlimit="10"/>
<path d="M41.0703 5.68652L45.2203 20.4626" stroke="white" stroke-width="1.92" stroke-miterlimit="10"/>
<path d="M54.9102 3L53.9502 22.5224" stroke="white" stroke-width="1.92" stroke-miterlimit="10"/>
<path d="M74.77 16.6914L66.96 28.6715" stroke="white" stroke-width="1.92" stroke-miterlimit="10"/>
<path d="M86.74 15.7563L76.75 29.4081" stroke="white" stroke-width="1.92" stroke-miterlimit="10"/>
<path d="M242.22 126.423H55.6602L71.7202 116.92H258.28L242.22 126.423Z" fill="white"/>
<path d="M125.08 92.7614H106L112.84 49.7764H131.92L131.02 55.5077H118.12L116.08 68.1943H128.92L128.02 73.9853H115.18L113.18 86.9206H126.08L125.08 92.7614Z" fill="white" stroke="white" stroke-width="3" stroke-miterlimit="10"/>
<path d="M146.2 92.7614H137.02L143.86 49.7764H164.08L163.18 55.5674H149.02L147.16 66.9704H149.38C157.46 66.9306 161.5 70.2473 161.5 76.9206C161.499 77.9204 161.419 78.9186 161.26 79.9057C160.593 84.045 158.963 87.2192 156.37 89.4281C153.776 91.6371 150.386 92.7482 146.2 92.7614ZM155.32 77.657C155.32 74.3402 153.32 72.6818 149.32 72.6818H146.26L143.98 87.0102H147.04C151.706 87.0102 154.406 84.6619 155.14 79.9654C155.261 79.2019 155.321 78.43 155.32 77.657Z" fill="white" stroke="white" stroke-width="3" stroke-miterlimit="10"/>
<path d="M197.8 93.5969C187.72 93.5969 183.013 87.0696 183.68 74.0148H178.88L175.88 92.7611H169.68L176.52 49.776H182.68L179.8 67.9253H184.68C186.24 62.3134 188.54 57.9153 191.58 54.7313C193.261 52.866 195.326 51.3832 197.635 50.3839C199.944 49.3845 202.442 48.8921 204.96 48.9402C209.76 48.9402 213.426 50.6716 215.96 54.1343C218.2 57.1989 219.32 61.1989 219.32 66.1343C219.364 72.6548 217.395 79.0316 213.68 84.4029C209.533 90.5323 204.24 93.5969 197.8 93.5969ZM212.98 67.1989C213.09 64.3216 212.398 61.47 210.98 58.9601C210.276 57.7247 209.242 56.7078 207.992 56.0226C206.742 55.3375 205.325 55.011 203.9 55.0795C199.233 55.0795 195.566 57.6467 192.9 62.781C190.697 67.0931 189.585 71.8748 189.66 76.7114C189.66 83.9551 192.68 87.577 198.72 87.577C203.08 87.577 206.64 85.189 209.4 80.4129C211.753 76.4033 212.988 71.842 212.98 67.1989Z" fill="white" stroke="white" stroke-width="3" stroke-miterlimit="10"/>
<path d="M250 55.5674H242.86L236.92 92.7614H230.62L236.56 55.5674H229.48L230.38 49.7764H250.9L250 55.5674Z" fill="white" stroke="white" stroke-width="3" stroke-miterlimit="10"/>
<path d="M201.71 118.94H5.15039L22.0704 109.438H218.64L201.71 118.94Z" fill="white"/>
</svg>
